name rise36.2859peak64.2979fall75.1499.mot
datacolumns 19
datarows 29
range 15.78993800000000 15.83660500000000
endheader
time	ground_force1_vx	ground_force1_vy	ground_force1_vz	ground_force1_px	ground_force1_py	ground_force1_pz	ground_force2_vx	ground_force2_vy	ground_force2_vz	ground_force2_px	ground_force2_py	ground_force2_pz	ground_torque1_x	ground_torque1_y	ground_torque1_z	ground_torque2_x	ground_torque2_y	ground_torque2_z	
15.78993800000000	-9.09067100000000	41.82243200000000	-8.31300600000000	0.39348500000000	0.00000000000000	0.09758100000000	-38.96679200000000	797.87522500000000	-60.20096400000000	0.22702100000000	0.00000000000000	-0.10281800000000	0.00000000000000	-6.39461000000000	0.00000000000000	0.00000000000000	-34.20706300000000	0.00000000000000	
15.79160300000000	-9.96699700000000	49.03455900000000	-9.30230500000000	0.39560900000000	0.00000000000000	0.09875900000000	-39.60811200000000	795.50998100000004	-59.79910800000000	0.22584600000000	0.00000000000000	-0.10272400000000	0.00000000000000	-7.20962200000000	0.00000000000000	0.00000000000000	-34.03993700000000	0.00000000000000	
15.79327500000000	-10.67131300000000	56.34473900000000	-10.18462600000000	0.39771100000000	0.00000000000000	0.09982700000000	-40.26921200000000	793.01336000000003	-59.37334400000000	0.22466000000000	0.00000000000000	-0.10262800000000	0.00000000000000	-7.95832400000000	0.00000000000000	0.00000000000000	-33.86979500000000	0.00000000000000	
15.79494700000000	-11.17919400000000	63.66050800000000	-10.93781100000000	0.39979100000000	0.00000000000000	0.10080000000000	-40.94973000000000	790.38339900000005	-58.92375700000000	0.22346300000000	0.00000000000000	-0.10253000000000	0.00000000000000	-8.62376400000000	0.00000000000000	0.00000000000000	-33.69676500000000	0.00000000000000	
15.79660300000000	-11.47635600000000	70.91229700000000	-11.54745500000000	0.40184800000000	0.00000000000000	0.10169100000000	-41.64920500000000	787.61810400000002	-58.45046100000000	0.22225600000000	0.00000000000000	-0.10242900000000	0.00000000000000	-9.19445900000000	0.00000000000000	0.00000000000000	-33.52096600000000	0.00000000000000	
15.79828100000000	-11.55849000000000	78.05558300000000	-12.00695700000000	0.40388300000000	0.00000000000000	0.10251300000000	-42.36707400000000	784.71545200000003	-57.95360200000000	0.22104000000000	0.00000000000000	-0.10232700000000	0.00000000000000	-9.66451400000000	0.00000000000000	0.00000000000000	-33.34250300000000	0.00000000000000	
15.79994400000000	-11.43031300000000	85.07062100000000	-12.31692600000000	0.40589500000000	0.00000000000000	0.10327400000000	-43.10267100000000	781.67339200000004	-57.43335200000000	0.21981500000000	0.00000000000000	-0.10222200000000	0.00000000000000	-10.03327400000000	0.00000000000000	0.00000000000000	-33.16146900000000	0.00000000000000	
15.80160200000000	-11.10404000000000	91.96017800000000	-12.48408700000000	0.40788600000000	0.00000000000000	0.10398200000000	-43.85522900000000	778.48984900000005	-56.88991500000000	0.21858300000000	0.00000000000000	-0.10211500000000	0.00000000000000	-10.30460600000000	0.00000000000000	0.00000000000000	-32.97794600000000	0.00000000000000	
15.80328000000000	-10.59751000000000	98.74579300000001	-12.51988700000000	0.40985500000000	0.00000000000000	0.10464200000000	-44.62387400000000	775.16273100000001	-56.32352200000000	0.21734400000000	0.00000000000000	-0.10200500000000	0.00000000000000	-10.48593000000000	0.00000000000000	0.00000000000000	-32.79199700000000	0.00000000000000	
15.80494100000000	-9.93216500000000	105.46313700000000	-12.43894900000000	0.41180300000000	0.00000000000000	0.10526100000000	-45.40762800000000	771.68992600000001	-55.73443900000000	0.21610000000000	0.00000000000000	-0.10189300000000	0.00000000000000	-10.58711800000000	0.00000000000000	0.00000000000000	-32.60367700000000	0.00000000000000	
15.80660300000000	-9.13109900000000	112.15701400000000	-12.25753200000000	0.41373200000000	0.00000000000000	0.10584200000000	-46.20540700000000	768.06931499999996	-55.12296000000000	0.21485200000000	0.00000000000000	-0.10177900000000	0.00000000000000	-10.61939000000000	0.00000000000000	0.00000000000000	-32.41302000000000	0.00000000000000	
15.80827800000000	-8.21729600000000	118.87646700000001	-11.99213000000000	0.41564100000000	0.00000000000000	0.10639000000000	-47.01602400000000	764.29877299999998	-54.48941000000000	0.21360100000000	0.00000000000000	-0.10166300000000	0.00000000000000	-10.59428000000000	0.00000000000000	0.00000000000000	-32.22004800000000	0.00000000000000	
15.80994300000000	-7.21218600000000	125.67036899999999	-11.65828800000000	0.41753100000000	0.00000000000000	0.10690700000000	-47.83818900000000	760.37617599999999	-53.83414600000000	0.21234800000000	0.00000000000000	-0.10154400000000	0.00000000000000	-10.52275500000000	0.00000000000000	0.00000000000000	-32.02476600000000	0.00000000000000	
15.81160400000000	-6.13456500000000	132.58374599999999	-11.26969600000000	0.41940300000000	0.00000000000000	0.10739700000000	-48.67050900000000	756.29941199999996	-53.15755800000000	0.21109500000000	0.00000000000000	-0.10142300000000	0.00000000000000	-10.41451800000000	0.00000000000000	0.00000000000000	-31.82716300000000	0.00000000000000	
15.81328100000000	-4.99990400000000	139.65501000000000	-10.83758300000000	0.42125700000000	0.00000000000000	0.10786100000000	-49.51149100000000	752.06638499999997	-52.46006800000000	0.20984300000000	0.00000000000000	-0.10129900000000	0.00000000000000	-10.27753700000000	0.00000000000000	0.00000000000000	-31.62721100000000	0.00000000000000	
15.81494400000000	-3.82003200000000	146.91413200000000	-10.37039800000000	0.42309400000000	0.00000000000000	0.10830200000000	-50.35954300000000	747.67502600000000	-51.74213000000000	0.20859400000000	0.00000000000000	-0.10117300000000	0.00000000000000	-10.11777400000000	0.00000000000000	0.00000000000000	-31.42486700000000	0.00000000000000	
15.81660300000000	-2.60314400000000	154.38173499999999	-9.87376200000000	0.42491400000000	0.00000000000000	0.10872300000000	-51.21298000000000	743.12330499999996	-51.00422900000000	0.20734900000000	0.00000000000000	-0.10104400000000	0.00000000000000	-9.93911400000000	0.00000000000000	0.00000000000000	-31.22006800000000	0.00000000000000	
15.81828300000000	-1.35408500000000	162.06900200000001	-9.35064200000000	0.42671800000000	0.00000000000000	0.10912300000000	-52.07002200000000	738.40924099999995	-50.24688700000000	0.20611000000000	0.00000000000000	-0.10091300000000	0.00000000000000	-9.74346800000000	0.00000000000000	0.00000000000000	-31.01273900000000	0.00000000000000	
15.81993900000000	-0.07482800000000	169.97826900000001	-8.80168000000000	0.42850500000000	0.00000000000000	0.10950500000000	-52.92880400000000	733.53091400000005	-49.47065400000000	0.20487800000000	0.00000000000000	-0.10077900000000	0.00000000000000	-9.53099200000000	0.00000000000000	0.00000000000000	-30.80278500000000	0.00000000000000	
15.82160400000000	1.23491900000000	178.10411500000001	-8.22565200000000	0.43027500000000	0.00000000000000	0.10987100000000	-53.78737400000000	728.48647900000003	-48.67611700000000	0.20365500000000	0.00000000000000	-0.10064200000000	0.00000000000000	-9.30041000000000	0.00000000000000	0.00000000000000	-30.59009400000000	0.00000000000000	
15.82327600000000	2.57705200000000	186.43478600000000	-7.61997200000000	0.43203000000000	0.00000000000000	0.11022000000000	-54.64370300000000	723.27418100000000	-47.86389200000000	0.20244400000000	0.00000000000000	-0.10050300000000	0.00000000000000	-9.04937600000000	0.00000000000000	0.00000000000000	-30.37454100000000	0.00000000000000	
15.82493800000000	3.95440300000000	194.95379000000000	-6.98120800000000	0.43376800000000	0.00000000000000	0.11055500000000	-55.49568500000000	717.89237100000003	-47.03462800000000	0.20124600000000	0.00000000000000	-0.10036000000000	0.00000000000000	-8.77485900000000	0.00000000000000	0.00000000000000	-30.15598200000000	0.00000000000000	
15.82660900000000	5.37013600000000	203.64149900000001	-6.30557400000000	0.43549000000000	0.00000000000000	0.11087600000000	-56.34114600000000	712.33951800000000	-46.18900800000000	0.20006200000000	0.00000000000000	-0.10021500000000	0.00000000000000	-8.47350300000000	0.00000000000000	0.00000000000000	-29.93425900000000	0.00000000000000	
15.82827200000000	6.82722000000000	212.47665300000000	-5.58935100000000	0.43719500000000	0.00000000000000	0.11118300000000	-57.17784900000000	706.61422700000003	-45.32774400000000	0.19889500000000	0.00000000000000	-0.10006700000000	0.00000000000000	-8.14195400000000	0.00000000000000	0.00000000000000	-29.70919900000000	0.00000000000000	
15.82994200000000	8.32801600000000	221.43766700000000	-4.82923600000000	0.43888400000000	0.00000000000000	0.11147800000000	-58.00350000000000	700.71525799999995	-44.45157700000000	0.19774700000000	0.00000000000000	-0.09991600000000	0.00000000000000	-7.77712900000000	0.00000000000000	0.00000000000000	-29.48061300000000	0.00000000000000	
15.83160500000000	9.87398200000000	230.50368800000001	-4.02259900000000	0.44055600000000	0.00000000000000	0.11176100000000	-58.81575400000000	694.64153399999998	-43.56128100000000	0.19661900000000	0.00000000000000	-0.09976200000000	0.00000000000000	-7.37641900000000	0.00000000000000	0.00000000000000	-29.24830000000000	0.00000000000000	
15.83328500000000	11.46549600000000	239.65537599999999	-3.16764200000000	0.44221000000000	0.00000000000000	0.11203300000000	-59.61222100000000	688.39216499999998	-42.65765600000000	0.19551400000000	0.00000000000000	-0.09960400000000	0.00000000000000	-6.93782400000000	0.00000000000000	0.00000000000000	-29.01204400000000	0.00000000000000	
15.83494300000000	13.10179000000000	248.87539500000000	-2.26348100000000	0.44384700000000	0.00000000000000	0.11229500000000	-60.39047500000000	681.96645599999999	-41.74153200000000	0.19443300000000	0.00000000000000	-0.09944300000000	0.00000000000000	-6.46002500000000	0.00000000000000	0.00000000000000	-28.77161700000000	0.00000000000000	
15.83660500000000	14.78097300000000	258.14866100000000	-1.31014400000000	0.44546500000000	0.00000000000000	0.11254600000000	-61.14805900000000	675.36391900000001	-40.81376400000000	0.19338000000000	0.00000000000000	-0.09927900000000	0.00000000000000	-5.94239900000000	0.00000000000000	0.00000000000000	-28.52678100000000	0.00000000000000	
